{
  "accessors": [
    {
      "bufferView": 2,
      "componentType": 5126,
      "count": 201,
      "max": [2.0497879981994629, 3.9936935901641846, 1.775168776512146],
      "min": [-2.0497879981994629, -0.69171279668807983, -1.775168776512146],
      "type": "VEC3"
    },
    {
      "bufferView": 2,
      "byteOffset": 2412,
      "componentType": 5126,
      "count": 201,
      "max": [1, 1, 0.99637454748153687],
      "min": [-1, -0.9248884916305542, -0.99637508392333984],
      "type": "VEC3"
    },
    {
      "bufferView": 3,
      "componentType": 5126,
      "count": 201,
      "max": [0.99334412813186646, 0.99453192949295044, 0.99983590841293335, 1],
      "min": [
        -0.99568897485733032, -0.90369439125061035, -0.99983710050582886, 1
      ],
      "type": "VEC4"
    },
    {
      "bufferView": 1,
      "componentType": 5126,
      "count": 201,
      "max": [0.84278702735900879, 0.84895867109298706],
      "min": [0.00390625, 0.00390625],
      "type": "VEC2"
    },
    {
      "bufferView": 0,
      "componentType": 5125,
      "count": 972,
      "max": [200],
      "min": [0],
      "type": "SCALAR"
    },
    {
      "bufferView": 2,
      "byteOffset": 4824,
      "componentType": 5126,
      "count": 66,
      "max": [1.9327677488327026, 4.5165634155273438, 1.6738262176513672],
      "min": [-1.9327677488327026, -1.0419964790344238, -1.6738262176513672],
      "type": "VEC3"
    },
    {
      "bufferView": 2,
      "byteOffset": 5616,
      "componentType": 5126,
      "count": 66,
      "max": [1, 1, 0.86602592468261719],
      "min": [-1, -1, -0.86602568626403809],
      "type": "VEC3"
    },
    {
      "bufferView": 3,
      "byteOffset": 3216,
      "componentType": 5126,
      "count": 66,
      "max": [0.89988064765930176, 1, 0.92737662792205811, 1],
      "min": [
        -0.97810989618301392, -0.75862520933151245, -0.9045519232749939, 1
      ],
      "type": "VEC4"
    },
    {
      "bufferView": 1,
      "byteOffset": 1608,
      "componentType": 5126,
      "count": 66,
      "max": [0.99609375, 0.9893004298210144],
      "min": [0.00390625, 0.00390625],
      "type": "VEC2"
    },
    {
      "bufferView": 0,
      "byteOffset": 3888,
      "componentType": 5125,
      "count": 210,
      "max": [65],
      "min": [0],
      "type": "SCALAR"
    },
    {
      "bufferView": 2,
      "byteOffset": 6408,
      "componentType": 5126,
      "count": 56,
      "max": [0.2036510705947876, 5.0856146812438965, 0.291614830493927],
      "min": [-0.2036510705947876, 4.3245611190795898, -0.291614830493927],
      "type": "VEC3"
    },
    {
      "bufferView": 2,
      "byteOffset": 7080,
      "componentType": 5126,
      "count": 56,
      "max": [1, 0.94869452714920044, 1],
      "min": [-1, -1, -1],
      "type": "VEC3"
    },
    {
      "bufferView": 3,
      "byteOffset": 4272,
      "componentType": 5126,
      "count": 56,
      "max": [0.99994218349456787, 0.64238518476486206, 0.99576574563980103, 1],
      "min": [
        -0.86043494939804077, -0.99280959367752075, -0.95718574523925781, 1
      ],
      "type": "VEC4"
    },
    {
      "bufferView": 1,
      "byteOffset": 2136,
      "componentType": 5126,
      "count": 56,
      "max": [0.96611601114273071, 0.3409787118434906],
      "min": [0.00390625, 0.00390625],
      "type": "VEC2"
    },
    {
      "bufferView": 0,
      "byteOffset": 4728,
      "componentType": 5125,
      "count": 144,
      "max": [55],
      "min": [0],
      "type": "SCALAR"
    },
    {
      "bufferView": 2,
      "byteOffset": 7752,
      "componentType": 5126,
      "count": 172,
      "max": [1.0948624610900879, 6.3641729354858398, 0.16696056723594666],
      "min": [-1.0948624610900879, 4.6541857719421387, -0.16696056723594666],
      "type": "VEC3"
    },
    {
      "bufferView": 2,
      "byteOffset": 9816,
      "componentType": 5126,
      "count": 172,
      "max": [0.95143109560012817, 1, 0.93299233913421631],
      "min": [-0.95143109560012817, -1, -0.93543809652328491],
      "type": "VEC3"
    },
    {
      "bufferView": 3,
      "byteOffset": 5168,
      "componentType": 5126,
      "count": 172,
      "max": [0.97363674640655518, 0.99223530292510986, 0.99999904632568359, 1],
      "min": [
        -0.9928361177444458, -0.99245136976242065, -0.96387982368469238, 1
      ],
      "type": "VEC4"
    },
    {
      "bufferView": 1,
      "byteOffset": 2584,
      "componentType": 5126,
      "count": 172,
      "max": [0.98804426193237305, 0.45463210344314575],
      "min": [0.00390625, 0.00390625],
      "type": "VEC2"
    },
    {
      "bufferView": 0,
      "byteOffset": 5304,
      "componentType": 5125,
      "count": 540,
      "max": [171],
      "min": [0],
      "type": "SCALAR"
    }
  ],
  "asset": {
    "extras": {
      "author": "em_kei (https://sketchfab.com/em_kei)",
      "license": "CC-BY-4.0 (http://creativecommons.org/licenses/by/4.0/)",
      "source": "https://sketchfab.com/3d-models/stylized-lantern-3f5b31ca165944ea9660e98194a9d96c",
      "title": "Stylized lantern"
    },
    "generator": "Sketchfab-9.24.0",
    "version": "2.0"
  },
  "bufferViews": [
    {
      "buffer": 0,
      "byteLength": 7464,
      "byteOffset": 0,
      "name": "floatBufferViews",
      "target": 34963
    },
    {
      "buffer": 0,
      "byteLength": 3960,
      "byteOffset": 7464,
      "byteStride": 8,
      "name": "floatBufferViews",
      "target": 34962
    },
    {
      "buffer": 0,
      "byteLength": 11880,
      "byteOffset": 11424,
      "byteStride": 12,
      "name": "floatBufferViews",
      "target": 34962
    },
    {
      "buffer": 0,
      "byteLength": 7920,
      "byteOffset": 23304,
      "byteStride": 16,
      "name": "floatBufferViews",
      "target": 34962
    }
  ],
  "buffers": [
    {
      "byteLength": 31224,
      "uri": "scene.bin"
    }
  ],
  "extensionsRequired": ["KHR_materials_pbrSpecularGlossiness"],
  "extensionsUsed": ["KHR_materials_pbrSpecularGlossiness"],
  "images": [
    {
      "uri": "textures/lambert2_diffuse.jpg"
    },
    {
      "uri": "textures/lambert2_specularGlossiness.jpg"
    },
    {
      "uri": "textures/lambert2_emissive.jpg"
    },
    {
      "uri": "textures/lambert2_normal.jpg"
    }
  ],
  "materials": [
    {
      "doubleSided": true,
      "emissiveFactor": [1, 1, 1],
      "emissiveTexture": {
        "index": 2,
        "texCoord": 0
      },
      "extensions": {
        "KHR_materials_pbrSpecularGlossiness": {
          "diffuseFactor": [1, 1, 1, 1],
          "diffuseTexture": {
            "index": 0,
            "texCoord": 0
          },
          "glossinessFactor": 1,
          "specularFactor": [1, 1, 1],
          "specularGlossinessTexture": {
            "index": 1,
            "texCoord": 0
          }
        }
      },
      "name": "lambert2",
      "normalTexture": {
        "index": 3,
        "scale": 1,
        "texCoord": 0
      }
    }
  ],
  "meshes": [
    {
      "name": "first_lambert2_0",
      "primitives": [
        {
          "attributes": {
            "NORMAL": 1,
            "POSITION": 0,
            "TANGENT": 2,
            "TEXCOORD_0": 3
          },
          "indices": 4,
          "material": 0,
          "mode": 4
        }
      ]
    },
    {
      "name": "second_lambert2_0",
      "primitives": [
        {
          "attributes": {
            "NORMAL": 6,
            "POSITION": 5,
            "TANGENT": 7,
            "TEXCOORD_0": 8
          },
          "indices": 9,
          "material": 0,
          "mode": 4
        }
      ]
    },
    {
      "name": "third_lambert2_0",
      "primitives": [
        {
          "attributes": {
            "NORMAL": 11,
            "POSITION": 10,
            "TANGENT": 12,
            "TEXCOORD_0": 13
          },
          "indices": 14,
          "material": 0,
          "mode": 4
        }
      ]
    },
    {
      "name": "forth_lambert2_0",
      "primitives": [
        {
          "attributes": {
            "NORMAL": 16,
            "POSITION": 15,
            "TANGENT": 17,
            "TEXCOORD_0": 18
          },
          "indices": 19,
          "material": 0,
          "mode": 4
        }
      ]
    }
  ],
  "nodes": [
    {
      "children": [1],
      "name": "RootNode (gltf orientation matrix)",
      "rotation": [-0.70710678118654746, -0, -0, 0.70710678118654757]
    },
    {
      "children": [2],
      "name": "RootNode (model correction matrix)"
    },
    {
      "children": [3],
      "matrix": [1, 0, 0, 0, 0, 0, 1, 0, 0, -1, 0, 0, 0, 0, 0, 1],
      "name": "f62d77cbc402412dba92b27d48e2a94c.fbx"
    },
    {
      "children": [4, 6, 8, 10],
      "name": "RootNode"
    },
    {
      "children": [5],
      "name": "first"
    },
    {
      "mesh": 0,
      "name": "first_lambert2_0"
    },
    {
      "children": [7],
      "name": "second"
    },
    {
      "mesh": 1,
      "name": "second_lambert2_0"
    },
    {
      "children": [9],
      "name": "third"
    },
    {
      "mesh": 2,
      "name": "third_lambert2_0"
    },
    {
      "children": [11],
      "name": "forth"
    },
    {
      "mesh": 3,
      "name": "forth_lambert2_0"
    }
  ],
  "samplers": [
    {
      "magFilter": 9729,
      "minFilter": 9987,
      "wrapS": 10497,
      "wrapT": 10497
    }
  ],
  "scene": 0,
  "scenes": [
    {
      "name": "OSG_Scene",
      "nodes": [0]
    }
  ],
  "textures": [
    {
      "sampler": 0,
      "source": 0
    },
    {
      "sampler": 0,
      "source": 1
    },
    {
      "sampler": 0,
      "source": 2
    },
    {
      "sampler": 0,
      "source": 3
    }
  ]
}
